<svg version="1.1" xmlns="http://www.w3.org/2000/svg" xmlns:xlink="http://www.w3.org/1999/xlink" width="1227.60023" height="708.94504" viewBox="0,0,1227.60023,708.94504"><g transform="translate(288.34283,102.48721)"><g data-paper-data="{&quot;isPaintingLayer&quot;:true}" fill-rule="nonzero" stroke-linecap="butt" stroke-linejoin="miter" stroke-miterlimit="10" stroke-dasharray="" stroke-dashoffset="0" style="mix-blend-mode: normal"><path d="M-120.49698,606.20783v-699.42223h1042.91074v699.42224z" fill="#000000" stroke="none" stroke-width="0"/><path d="M245.39295,-40.94442v-53.09967h12.44524v53.09967z" fill="#ffffff" stroke="none" stroke-width="0"/><path d="M242.07422,527.388v-629.62521h387.46166v629.62521z" fill="#000000" stroke="#000000" stroke-width="0.5"/><path d="M-288.09282,516.60213v-336.85104h530.99671v336.85104z" fill="#000000" stroke="#000000" stroke-width="0.5"/><path d="M242.07422,606.20783v-421.47864h696.93319v421.47864z" fill="#000000" stroke="#000000" stroke-width="0.5"/><text transform="translate(170.00001,186) scale(0.5,0.5)" font-size="40" xml:space="preserve" fill="#ff0000" fill-rule="nonzero" stroke="none" stroke-width="1" stroke-linecap="butt" stroke-linejoin="miter" stroke-miterlimit="10" stroke-dasharray="" stroke-dashoffset="0" font-family="Sans Serif" font-weight="normal" text-anchor="start" style="mix-blend-mode: normal"><tspan x="0" dy="0">『纯粹的子弹』</tspan></text><text transform="translate(256.17882,80.18921) scale(0.5,0.5)" font-size="40" xml:space="preserve" fill="#ff0000" fill-rule="nonzero" stroke="none" stroke-width="1" stroke-linecap="butt" stroke-linejoin="miter" stroke-miterlimit="10" stroke-dasharray="" stroke-dashoffset="0" font-family="Sans Serif" font-weight="normal" text-anchor="start" style="mix-blend-mode: normal"><tspan x="0" dy="0"> </tspan></text><path d="M154,180c0,-47.49649 38.50351,-86 86,-86c47.49649,0 86,38.50351 86,86c0,47.49649 -38.50351,86 -86,86c-47.49649,0 -86,-38.50351 -86,-86z" fill="none" stroke="#ff0000" stroke-width="2.5"/></g></g></svg>