<svg version="1.1" xmlns="http://www.w3.org/2000/svg" xmlns:xlink="http://www.w3.org/1999/xlink" width="543.0625" height="175.5" viewBox="0,0,543.0625,175.5"><g transform="translate(291.0625,-16.5)"><g data-paper-data="{&quot;isPaintingLayer&quot;:true}" fill-rule="nonzero" stroke="none" stroke-linecap="butt" stroke-linejoin="miter" stroke-miterlimit="10" stroke-dasharray="" stroke-dashoffset="0" style="mix-blend-mode: normal"><path d="M-291.0625,19c0,-1.38071 1.11929,-2.5 2.5,-2.5c1.38071,0 2.5,1.11929 2.5,2.5c0,1.38071 -1.11929,2.5 -2.5,2.5c-1.38071,0 -2.5,-1.11929 -2.5,-2.5z" fill="#00ff1f" stroke-width="0.5"/><path d="M228,180c0,-6.62742 5.37258,-12 12,-12c6.62742,0 12,5.37258 12,12c0,6.62742 -5.37258,12 -12,12c-6.62742,0 -12,-5.37258 -12,-12z" fill="#00ff14" stroke-width="0"/><path d="M228.75,179.8125c0,-4.03858 5.12074,-7.3125 11.4375,-7.3125c6.31676,0 11.4375,3.27392 11.4375,7.3125c0,4.03858 -5.12074,7.3125 -11.4375,7.3125c-6.31676,0 -11.4375,-3.27392 -11.4375,-7.3125z" fill="#ff0000" stroke-width="0"/><path d="M236.25,183.75v-7.5h7.5v7.5z" fill="#fff500" stroke-width="0"/></g></g></svg>