<svg version="1.1" xmlns="http://www.w3.org/2000/svg" xmlns:xlink="http://www.w3.org/1999/xlink" width="848.66667" height="635.33334" viewBox="0,0,848.66667,635.33334"><defs><linearGradient x1="-122.91664" y1="220.41668" x2="723.75003" y2="220.41668" gradientUnits="userSpaceOnUse" id="color-1"><stop offset="0" stop-color="#006680"/><stop offset="1" stop-color="#6aa4b4"/></linearGradient></defs><g transform="translate(123.91665,97.24999)"><g data-paper-data="{&quot;isPaintingLayer&quot;:true}" fill-rule="nonzero" stroke-linejoin="miter" stroke-miterlimit="10" stroke-dasharray="" stroke-dashoffset="0" style="mix-blend-mode: normal"><path d="M-122.91664,537.08334v-633.33333h846.66667v633.33334z" fill="url(#color-1)" stroke="#000000" stroke-width="2" stroke-linecap="butt"/><path d="M475.41668,184.89035c0,7.19423 -6.15609,13.02631 -13.75,13.02631c-7.59391,0 -13.75,-5.83208 -13.75,-13.02631c0,-7.19423 6.15609,-13.02632 13.75,-13.02632c7.59391,0 13.75,5.83208 13.75,13.02632z" fill-opacity="0.5098" fill="#ffff00" stroke="none" stroke-width="0" stroke-linecap="butt"/><path d="M458.75003,177.91667l-26.66667,-47.5l25,42.5" fill="none" stroke-opacity="0.50196" stroke="#e2ff00" stroke-width="2.5" stroke-linecap="round"/><path d="M149.58335,121.25l262.5,23.33334l40,33.33333" fill="none" stroke-opacity="0.50196" stroke="#e2ff00" stroke-width="2.5" stroke-linecap="round"/><path d="M455.41668,185.41667l-49.16667,3.33334l-269.16666,-15.83334" fill="none" stroke-opacity="0.50196" stroke="#e2ff00" stroke-width="2.5" stroke-linecap="round"/><path d="M100.41669,288.75l189.16667,-32.5l167.5,-61.66666l-84.16667,100l-343.33333,50" fill="none" stroke-opacity="0.50196" stroke="#e2ff00" stroke-width="2.5" stroke-linecap="round"/><path d="M261.25001,349.58333l200,-47.5l1.66667,-107.5l52.5,120" fill="none" stroke-opacity="0.50196" stroke="#e2ff00" stroke-width="2.5" stroke-linecap="round"/><path d="M517.91667,94.58334l-48.33333,81.66666l-7.5,-68.33334l-226.66667,-95" fill="none" stroke-opacity="0.50196" stroke="#e2ff00" stroke-width="2.5" stroke-linecap="round"/><path d="M532.08336,250.41667l-59.16667,-65l59.16667,-30.83333" fill="none" stroke-opacity="0.50196" stroke="#e2ff00" stroke-width="2.5" stroke-linecap="round"/><path d="M431.25001,132.08334l-261.66666,-74.16667" fill="none" stroke-opacity="0.50196" stroke="#e2ff00" stroke-width="2.5" stroke-linecap="round"/><text transform="translate(12.5,344.5) scale(0.5,0.5)" font-size="40" xml:space="preserve" fill="#ffffff" fill-rule="nonzero" stroke="none" stroke-width="1" stroke-linecap="butt" stroke-linejoin="miter" stroke-miterlimit="10" stroke-dasharray="" stroke-dashoffset="0" font-family="Sans Serif" font-weight="normal" text-anchor="start" style="mix-blend-mode: normal"><tspan x="0" dy="0">『自机狙的乐园』</tspan></text></g></g></svg>