<svg version="1.1" xmlns="http://www.w3.org/2000/svg" xmlns:xlink="http://www.w3.org/1999/xlink" width="9.14259" height="9.7075" viewBox="0,0,9.14259,9.7075"><defs><linearGradient x1="236.01949" y1="176.49041" x2="243.95497" y2="176.49041" gradientUnits="userSpaceOnUse" id="color-1"><stop offset="0" stop-color="#9966ff"/><stop offset="1" stop-color="#66ebff"/></linearGradient><linearGradient x1="236.01949" y1="176.49041" x2="243.95497" y2="176.49041" gradientUnits="userSpaceOnUse" id="color-2"><stop offset="0" stop-color="#fff700"/><stop offset="1" stop-color="#00caff"/></linearGradient><linearGradient x1="236.0208" y1="180.94071" x2="240.09446" y2="180.94071" gradientUnits="userSpaceOnUse" id="color-3"><stop offset="0" stop-color="#ffff00"/><stop offset="1" stop-color="#00ff00"/></linearGradient><linearGradient x1="235.80502" y1="179.01046" x2="244.27668" y2="179.01046" gradientUnits="userSpaceOnUse" id="color-4"><stop offset="0" stop-color="#fff700"/><stop offset="1" stop-color="#00caff"/></linearGradient><linearGradient x1="243.91944" y1="178.84961" x2="244.41944" y2="178.84961" gradientUnits="userSpaceOnUse" id="color-5"><stop offset="0" stop-color="#fff700"/><stop offset="1" stop-color="#00caff"/></linearGradient><linearGradient x1="240.17229" y1="180.4328" x2="244.24152" y2="180.4328" gradientUnits="userSpaceOnUse" id="color-6"><stop offset="0" stop-color="#ffff00"/><stop offset="1" stop-color="#00ff00"/></linearGradient><linearGradient x1="237.89352" y1="180.35142" x2="244.07875" y2="180.35142" gradientUnits="userSpaceOnUse" id="color-7"><stop offset="0" stop-color="#fff700"/><stop offset="1" stop-color="#00caff"/></linearGradient><linearGradient x1="236.10306" y1="180.51419" x2="242.28829" y2="180.51419" gradientUnits="userSpaceOnUse" id="color-8"><stop offset="0" stop-color="#fff700"/><stop offset="1" stop-color="#00caff"/></linearGradient></defs><g transform="translate(-235.41593,-174.1493)"><g data-paper-data="{&quot;isPaintingLayer&quot;:true}" fill-rule="nonzero" stroke-width="0.5" stroke-linecap="round" stroke-linejoin="miter" stroke-miterlimit="10" stroke-dasharray="" stroke-dashoffset="0" style="mix-blend-mode: normal"><path d="M243.95497,174.50654l-3.96774,3.96774l-3.96774,-3.96774z" fill="url(#color-1)" stroke="url(#color-2)"/><path d="M236.0208,182.54794l4.07366,-4.07366v4.93286" fill="none" stroke="url(#color-3)"/><path d="M244.27668,183.51438h-8.47166v-9.00784" fill="none" stroke="url(#color-4)"/><path d="M244.16944,174.3993v8.90061" fill="none" stroke="url(#color-5)"/><path d="M240.17229,178.39818l4.06923,4.06923" fill="none" stroke="url(#color-6)"/><path d="M238.21906,176.93326l-2.44154,2.44154" fill="none" stroke="#ff0000"/><path d="M241.79998,176.60772l2.116,2.116" fill="none" stroke="#ff0000"/><path d="M237.89352,183.44403l6.18523,-6.18523" fill="none" stroke="url(#color-7)"/><path d="M242.28829,183.6068l-6.18523,-6.18523" fill="none" stroke="url(#color-8)"/></g></g></svg>